<svg xmlns="http://www.w3.org/2000/svg" viewBox="0 0 64 64" fill="none">
  <defs>
    <linearGradient id="g" x1="8" y1="8" x2="56" y2="56" gradientUnits="userSpaceOnUse">
      <stop stop-color="#4F7CFF"/>
      <stop offset="1" stop-color="#1D4ED8"/>
    </linearGradient>
  </defs>
  <rect x="6" y="6" width="52" height="52" rx="12" fill="url(#g)"/>
  <path d="M20 20h24a3 3 0 0 1 3 3v18a3 3 0 0 1-3 3H20a3 3 0 0 1-3-3V23a3 3 0 0 1 3-3Z" fill="#fff" opacity="0.95"/>
  <path d="M24 17a8 8 0 0 1 16 0v3h-3v-3a5 5 0 1 0-10 0v3h-3v-3Z" fill="#EAF0FF"/>
  <rect x="22" y="27" width="20" height="2.8" rx="1.4" fill="#1D4ED8"/>
  <rect x="22" y="33" width="20" height="2.8" rx="1.4" fill="#4F7CFF"/>
  <rect x="22" y="39" width="14" height="2.8" rx="1.4" fill="#93A4D4"/>
</svg>
